<svg baseProfile="basic" xmlns="http://www.w3.org/2000/svg" xmlns:xlink="http://www.w3.org/1999/xlink" viewBox="0 0 51 51"><defs><path id="a" d="M0 0h51v51H0z"/></defs><clipPath id="b"><use xlink:href="#a" overflow="visible"/></clipPath><path clip-path="url(#b)" fill="#00A5DB" d="M51 25.5C51 39.6 39.6 51 25.5 51S0 39.6 0 25.5 11.4 0 25.5 0 51 11.4 51 25.5"/><circle clip-path="url(#b)" fill="none" stroke="#FFF" stroke-width="2.8" stroke-linecap="round" stroke-linejoin="round" cx="17" cy="33" r="3.7"/><path clip-path="url(#b)" fill="none" stroke="#FFF" stroke-width="2.8" stroke-linecap="round" stroke-linejoin="round" d="M37.6 20.3h-6.5v-6H9.7v18h3.7c.3-1.7 1.8-3 3.6-3s3.3 1.3 3.6 3h10.7c.3-1.7 1.8-3 3.6-3s3.3 1.3 3.6 3H42v-6.2l-4.4-5.8z"/><circle clip-path="url(#b)" fill="none" stroke="#FFF" stroke-width="2.8" stroke-linecap="round" stroke-linejoin="round" cx="34.8" cy="33" r="3.7"/><path clip-path="url(#b)" fill="none" stroke="#FFF" stroke-width="2.8" stroke-linecap="round" stroke-linejoin="round" d="M15.2 20.9h9.9"/></svg>