<?xml version="1.0" encoding="utf-8"?>
<!-- Generator: Adobe Illustrator 17.1.0, SVG Export Plug-In . SVG Version: 6.00 Build 0)  -->
<!DOCTYPE svg PUBLIC "-//W3C//DTD SVG 1.1//EN" "http://www.w3.org/Graphics/SVG/1.1/DTD/svg11.dtd">
<svg version="1.1" id="Слой_1" xmlns="http://www.w3.org/2000/svg" xmlns:xlink="http://www.w3.org/1999/xlink" x="0px" y="0px"
	 width="212.6px" height="212.5px" viewBox="0 289.7 212.6 212.5" enable-background="new 0 289.7 212.6 212.5"
	 xml:space="preserve">
<g>
	<path fill="#00A5DB" d="M106.3,289.7C47.7,289.7,0,337.4,0,396c0,58.8,47.5,106.3,106.3,106.3c58.6,0,106.3-47.5,106.3-106.3
		C212.7,337.4,165.2,289.7,106.3,289.7"/>
	<path fill="#FFFFFF" d="M122.4,380.9v12.3c0,4.3-0.2,7.8-0.7,10.9l0,0l0,0c-0.5,2.8-1.2,5.2-2.4,7.3l0,0c0,0,0,0,0,0.2l0,0l0,0l0,0
		c-0.9,1.9-2.4,3.5-4.3,4.5c0,0,0,0-0.2,0l0,0c-1.7,0.9-3.5,1.4-5.4,1.4h-1.7c-0.9,0-1.9-0.9-1.9-1.9V413c0-0.9,0.9-1.9,1.9-1.9h0.9
		c0.9,0,1.9-0.2,2.8-0.7l0,0l0,0c0.7-0.2,1.4-0.9,1.9-2.4c0.7-1.2,1.2-3.3,1.7-5.9l0,0c0.5-2.6,0.7-6.1,0.7-10.4v-15.1
		c0-0.9,0.9-1.9,1.9-1.9h21c0.9,0,1.9,0.9,1.9,1.9v39c0,0.9-0.9,1.9-1.9,1.9h-2.8c-0.9,0-1.9-0.9-1.9-1.9v-34.7H122.4z"/>
	<path fill="#FFFFFF" d="M79.6,380.9c-0.9,0-1.9-0.9-1.9-1.9v-2.6c0-0.9,0.9-1.9,1.9-1.9h26.2c0.9,0,1.9,0.9,1.9,1.9v2.6
		c0,0.9-0.9,1.9-1.9,1.9h-9.9v34.5c0,0.9-0.9,1.9-1.9,1.9h-2.8c-0.9,0-1.9-0.9-1.9-1.9v-34.5H79.6z"/>
	<path fill="#FFFFFF" d="M138.2,351.3c-0.2,0-0.2-0.2-0.5-0.2c-0.2-0.2-0.5-0.5-0.9-0.5c-8.3-5.4-18.4-8.5-29.1-8.5
		c-29.8,0-53.9,24.1-53.9,53.9s24.1,53.9,53.9,53.9c10.6,0,20.6-3.1,29.1-8.5c0.2-0.2,0.7-0.5,0.9-0.5l0.2-0.2
		c3.1-1.9,5.4-3.8,7.1-5c4-2.6,11.6-5.7,17.2,1.4c5.7,7.1,0.7,15.4-1.2,17.7c-2.1,2.4-9.5,8-15.4,11.1c-2.6,1.4-16.3,8-39.2,8
		c-48.7-0.5-78.4-35.9-78-78c-0.5-42.1,29.1-77.5,78-78c22.9,0,36.6,6.6,39.2,8c5.9,3.1,13.2,8.7,15.4,11.1
		c1.9,2.4,6.9,10.6,1.2,17.7s-13,4-17.2,1.4C143.7,355.1,141.3,353.2,138.2,351.3"/>
</g>
</svg>
