<?xml version="1.0" encoding="utf-8"?>
<!-- Generator: Adobe Illustrator 21.0.0, SVG Export Plug-In . SVG Version: 6.00 Build 0)  -->
<svg version="1.1" id="Слой_1" xmlns="http://www.w3.org/2000/svg" xmlns:xlink="http://www.w3.org/1999/xlink" x="0px" y="0px"
	 viewBox="0 0 19 19" style="enable-background:new 0 0 19 19;" xml:space="preserve">
<style type="text/css">
	.st0{fill:#FFFFFF;}
</style>
<path class="st0" d="M18.7,17.3l-5.1-5.1c1-1.3,1.6-2.9,1.6-4.6c0-4.2-3.4-7.6-7.6-7.6C3.4,0,0,3.4,0,7.6c0,4.2,3.4,7.6,7.6,7.6
	c1.7,0,3.3-0.6,4.6-1.6l5.1,5.1c0.4,0.4,1,0.4,1.4,0C19.1,18.3,19.1,17.7,18.7,17.3z M3.6,11.5c-1-1-1.6-2.4-1.6-3.9
	C2,6,2.6,4.7,3.6,3.6C4.7,2.6,6,2,7.6,2c1.5,0,2.9,0.6,3.9,1.6c1,1,1.6,2.4,1.6,3.9c0,1.5-0.6,2.9-1.6,3.9c-1,1-2.4,1.6-3.9,1.6
	C6,13.1,4.7,12.5,3.6,11.5z"/>
</svg>
