<?xml version="1.0" encoding="utf-8"?>
<!-- Generator: Adobe Illustrator 21.0.0, SVG Export Plug-In . SVG Version: 6.00 Build 0)  -->
<svg version="1.1" id="Слой_1" xmlns="http://www.w3.org/2000/svg" xmlns:xlink="http://www.w3.org/1999/xlink" x="0px" y="0px"
	 viewBox="0 0 259 90" style="enable-background:new 0 0 259 90;" xml:space="preserve">
<style type="text/css">
	.st0{fill:#00A5DB;}
	.st1{fill:#FFFFFF;}
</style>
<g>
	<path class="st0" d="M45,0C20.2,0,0,20.2,0,45c0,24.9,20.1,45,45,45c24.8,0,45-20.1,45-45C90,20.2,69.9,0,45,0"/>
	<path class="st1" d="M51.8,38.6v5.2c0,1.8-0.1,3.3-0.3,4.6l0,0l0,0c-0.2,1.2-0.5,2.2-1,3.1c0,0,0,0,0,0c0,0,0,0,0,0.1l0,0h0l0,0
		c-0.4,0.8-1,1.5-1.8,1.9c0,0,0,0-0.1,0c0,0,0,0,0,0c-0.7,0.4-1.5,0.6-2.3,0.6h-0.7c-0.4,0-0.8-0.4-0.8-0.8v-1.1
		c0-0.4,0.4-0.8,0.8-0.8H46c0.4,0,0.8-0.1,1.2-0.3l0,0l0,0c0.3-0.1,0.6-0.4,0.8-1c0.3-0.5,0.5-1.4,0.7-2.5h0
		c0.2-1.1,0.3-2.6,0.3-4.4v-6.4c0-0.4,0.4-0.8,0.8-0.8h8.9c0.4,0,0.8,0.4,0.8,0.8v16.5c0,0.4-0.4,0.8-0.8,0.8h-1.2
		c-0.4,0-0.8-0.4-0.8-0.8V38.6H51.8z"/>
	<path class="st1" d="M33.7,38.6c-0.4,0-0.8-0.4-0.8-0.8v-1.1c0-0.4,0.4-0.8,0.8-0.8h11.1c0.4,0,0.8,0.4,0.8,0.8v1.1
		c0,0.4-0.4,0.8-0.8,0.8h-4.2v14.6c0,0.4-0.4,0.8-0.8,0.8h-1.2c-0.4,0-0.8-0.4-0.8-0.8V38.6H33.7z"/>
	<path class="st1" d="M58.5,26.1c-0.1,0-0.1-0.1-0.2-0.1c-0.1-0.1-0.2-0.2-0.4-0.2c-3.5-2.3-7.8-3.6-12.3-3.6
		c-12.6,0-22.8,10.2-22.8,22.8c0,12.6,10.2,22.8,22.8,22.8c4.5,0,8.7-1.3,12.3-3.6c0.1-0.1,0.3-0.2,0.4-0.2c0,0,0.1-0.1,0.1-0.1
		c1.3-0.8,2.3-1.6,3-2.1c1.7-1.1,4.9-2.4,7.3,0.6c2.4,3,0.3,6.5-0.5,7.5c-0.9,1-4,3.4-6.5,4.7c-1.1,0.6-6.9,3.4-16.6,3.4
		c-20.6-0.2-33.2-15.2-33-33c-0.2-17.8,12.3-32.8,33-33c9.7,0,15.5,2.8,16.6,3.4c2.5,1.3,5.6,3.7,6.5,4.7c0.8,1,2.9,4.5,0.5,7.5
		c-2.4,3-5.5,1.7-7.3,0.6C60.8,27.7,59.8,26.9,58.5,26.1"/>
	<g>
		<path class="st0" d="M117.8,24.4c-1.4,0.9-2.8,1.2-4,1.2c-2.1,0-3.5-1.1-4.2-1.9c-1.1-1.3-1.7-3.1-1.7-5.4c0-2.5,0.8-4.4,1.9-5.6
			c1.3-1.4,2.8-1.8,4.2-1.8c0.8,0,2.2,0.1,3.5,1.2l-0.9,1.1c-1-0.8-2-0.9-2.7-0.9c-1.4,0-2.7,0.6-3.5,2.5c-0.5,1.2-0.6,2.4-0.6,3.8
			c0,0.8,0,1.9,0.5,3c0.4,1.1,1.5,2.7,3.8,2.7c0.6,0,1.7-0.1,2.8-0.9L117.8,24.4z"/>
		<path class="st0" d="M127.4,16.2c0.8,1,1.2,2.5,1.2,4c0,1.7-0.4,3.1-1.2,4c-0.8,1-2.1,1.5-3.3,1.5c-1.2,0-2.5-0.5-3.3-1.5
			c-0.8-0.9-1.2-2.3-1.2-4c0-1.4,0.4-3,1.2-4c0.8-0.9,2.1-1.5,3.3-1.5C125.3,14.7,126.6,15.3,127.4,16.2z M121.9,17.4
			c-0.2,0.3-0.5,1-0.5,2.8c0,1.8,0.3,2.5,0.5,2.8c0.3,0.5,0.9,1.3,2.2,1.3s1.9-0.8,2.2-1.3c0.2-0.3,0.5-1,0.5-2.8
			c0-1.8-0.3-2.5-0.5-2.8c-0.3-0.5-0.9-1.3-2.2-1.3S122.2,16.9,121.9,17.4z"/>
		<path class="st0" d="M135.6,15c0.7,0,1.4,0.1,2.1,0.5c0.9,0.6,1.1,1.6,1.1,2.2c0,0.6-0.2,1.1-0.6,1.6c-0.2,0.2-0.5,0.5-1,0.6
			c0.5,0.1,1.1,0.4,1.4,0.8c0.5,0.5,0.6,1,0.6,1.8c0,1.1-0.5,1.8-0.9,2.1c-0.8,0.8-2,0.8-2.7,0.8h-4.2V15H135.6z M133.1,19.4h2.4
			c0.4,0,1-0.2,1.3-0.5c0.2-0.2,0.4-0.5,0.4-1.1c0-0.6-0.3-1-0.5-1.2c-0.2-0.2-0.6-0.4-1.1-0.4h-2.5V19.4z M133.1,24.2h2.6
			c0.8,0,1.2-0.2,1.4-0.5c0.1-0.1,0.5-0.5,0.5-1.3c0-0.5-0.1-1-0.6-1.4c-0.3-0.2-0.8-0.4-1.3-0.4h-2.6V24.2z"/>
		<path class="st0" d="M143.7,14.7c0.1,0.5,0.1,1,0.1,1.6c0.8-1.1,2-1.6,3.1-1.6c1.6,0,2.4,0.9,2.8,1.3c0.8,1,1.1,2.3,1.1,4.1
			c0,0.9-0.1,2.4-0.8,3.6c-0.5,0.8-1.6,1.9-3.2,1.9c-0.9,0-2-0.3-2.9-1.2v5l-1.6,0.3V17.2c0-0.9-0.1-1.6-0.2-2.2L143.7,14.7z
			 M143.8,22.9c0.5,0.6,1.5,1.4,2.5,1.4c1,0,1.8-0.5,2.2-1.3c0.4-0.9,0.4-2.1,0.4-2.4c0-1.7-0.2-2.6-0.5-3.2
			c-0.2-0.4-0.7-1.2-1.9-1.2c-1,0-2.1,0.5-2.8,1.5V22.9z"/>
		<path class="st0" d="M154.8,20.5v0.2c0,0.6,0,1.5,0.5,2.3c0.5,0.8,1.4,1.3,2.6,1.3c0.6,0,1.6-0.1,2.5-1l0.6,1
			c-1,0.9-2.2,1.3-3.5,1.3c-1.8,0-2.8-0.8-3.4-1.5c-1-1.2-1.2-2.6-1.2-4.1c0-1.1,0.2-2.5,1.1-3.7c0.6-0.9,1.7-1.7,3.3-1.7
			c1.3,0,2.3,0.5,2.8,1.1c0.6,0.6,0.8,1.4,0.9,1.6c0.2,0.6,0.3,1.4,0.3,2.8v0.2H154.8z M159.6,19.2c0-0.6-0.1-1.7-0.5-2.3
			c-0.3-0.5-1-0.9-1.9-0.9c-0.9,0-1.5,0.4-1.9,1c-0.4,0.6-0.6,1.5-0.5,2.2H159.6z"/>
		<path class="st0" d="M166.6,15l1.9,6c0.1,0.4,0.5,1.5,0.6,2.3c0.1-0.4,0.4-1.7,0.6-2.1l2-6.2h2.2l1,10.4h-1.6l-0.6-7.1
			c0-0.5-0.1-1.6-0.1-1.8h-0.1c-0.1,0.6-0.3,1.3-0.4,1.6l-2.3,7.2h-1.4l-2.3-7.1c-0.1-0.4-0.4-1.4-0.4-1.7h-0.1c0,1,0,1.2,0,1.3
			l-0.6,7.5h-1.6l1-10.4H166.6z"/>
		<path class="st0" d="M179.2,20.5v0.2c0,0.6,0,1.5,0.5,2.3c0.5,0.8,1.4,1.3,2.6,1.3c0.6,0,1.6-0.1,2.5-1l0.6,1
			c-1,0.9-2.2,1.3-3.5,1.3c-1.8,0-2.8-0.8-3.4-1.5c-1-1.2-1.2-2.6-1.2-4.1c0-1.1,0.2-2.5,1.1-3.7c0.6-0.9,1.7-1.7,3.3-1.7
			c1.3,0,2.3,0.5,2.8,1.1c0.6,0.6,0.8,1.4,0.9,1.6c0.2,0.6,0.3,1.4,0.3,2.8v0.2H179.2z M183.9,19.2c0-0.6-0.1-1.7-0.5-2.3
			c-0.3-0.5-1-0.9-1.9-0.9c-0.9,0-1.5,0.4-1.9,1c-0.4,0.6-0.6,1.5-0.5,2.2H183.9z"/>
		<path class="st0" d="M190,25.4h-1.6V15.1l1.6-0.3v4.4h4.5v-4.1l1.6-0.3v10.6h-1.6v-4.9H190V25.4z"/>
		<path class="st0" d="M201.1,25.4h-1.6V15.1l1.6-0.3v4.4h4.5v-4.1l1.6-0.3v10.6h-1.6v-4.9h-4.5V25.4z"/>
		<path class="st0" d="M212.2,19h1.7c1.1,0,2.1,0.2,2.9,0.8c0.8,0.6,1,1.4,1,2.4c0,0.8-0.2,1.7-1.1,2.4c-0.9,0.7-1.9,0.8-2.4,0.8
			h-3.9V15.1l1.6-0.3V19z M212.2,24.1h1.9c0.8,0,1.3-0.3,1.6-0.5c0.2-0.2,0.6-0.6,0.6-1.4c0-0.8-0.3-1.2-0.6-1.5
			c-0.5-0.5-1.3-0.5-1.9-0.5h-1.6V24.1z M221.2,14.7v10.6h-1.6V15.1L221.2,14.7z"/>
		<path class="st0" d="M226,20.5v0.2c0,0.6,0,1.5,0.5,2.3c0.5,0.8,1.4,1.3,2.6,1.3c0.6,0,1.6-0.1,2.5-1l0.6,1
			c-1,0.9-2.2,1.3-3.5,1.3c-1.8,0-2.8-0.8-3.4-1.5c-1-1.2-1.2-2.6-1.2-4.1c0-1.1,0.2-2.5,1.1-3.7c0.6-0.9,1.7-1.7,3.3-1.7
			c1.3,0,2.3,0.5,2.8,1.1c0.6,0.6,0.8,1.4,0.9,1.6c0.2,0.6,0.3,1.4,0.3,2.8v0.2H226z M230.7,19.2c0-0.6-0.1-1.7-0.5-2.3
			c-0.3-0.5-1-0.9-1.9-0.9c-0.9,0-1.5,0.4-1.9,1c-0.4,0.6-0.6,1.5-0.5,2.2H230.7z"/>
	</g>
	<g>
		<path class="st0" d="M116.1,37.9h-3.9v12.9h-1.7V37.9h-3.8v-1.4h9.5L116.1,37.9z"/>
		<path class="st0" d="M117.6,45.9v0.2c0,0.6,0,1.5,0.5,2.3c0.5,0.8,1.4,1.3,2.6,1.3c0.6,0,1.6-0.1,2.5-1l0.6,1
			c-1,0.9-2.2,1.3-3.5,1.3c-1.8,0-2.8-0.8-3.4-1.5c-1-1.2-1.2-2.6-1.2-4.1c0-1.1,0.2-2.5,1.1-3.7c0.6-0.9,1.7-1.7,3.3-1.7
			c1.3,0,2.3,0.5,2.8,1.1c0.6,0.6,0.8,1.4,0.9,1.6c0.2,0.6,0.3,1.4,0.3,2.8v0.2H117.6z M122.3,44.6c0-0.6-0.1-1.7-0.5-2.3
			c-0.3-0.5-1-0.9-1.9-0.9c-0.9,0-1.5,0.4-1.9,1c-0.4,0.6-0.6,1.5-0.5,2.2H122.3z"/>
		<path class="st0" d="M132.3,50.8l-2.8-4.4l-2.8,4.4h-1.9l3.9-5.8l-3.2-4.6h2l2.1,3.5l2-3.5h1.9l-3.1,4.6l4,5.8H132.3z"/>
		<path class="st0" d="M137.6,50.8H136V40.5l1.6-0.3v4.4h4.5v-4.1l1.6-0.3v10.6h-1.6v-4.9h-4.5V50.8z"/>
		<path class="st0" d="M154.3,41.6c0.8,1,1.2,2.5,1.2,4c0,1.7-0.4,3.1-1.2,4c-0.8,1-2.1,1.5-3.3,1.5c-1.2,0-2.5-0.5-3.3-1.5
			c-0.8-0.9-1.2-2.3-1.2-4c0-1.4,0.4-3,1.2-4c0.8-0.9,2.1-1.5,3.3-1.5C152.2,40.1,153.5,40.7,154.3,41.6z M148.8,42.8
			c-0.2,0.3-0.5,1-0.5,2.8c0,1.8,0.3,2.5,0.5,2.8c0.3,0.5,0.9,1.3,2.2,1.3c1.3,0,1.9-0.8,2.2-1.3c0.2-0.3,0.5-1,0.5-2.8
			c0-1.8-0.3-2.5-0.5-2.8c-0.3-0.5-0.9-1.3-2.2-1.3C149.7,41.5,149.1,42.3,148.8,42.8z"/>
		<path class="st0" d="M164.8,40.4v10.4h-1.6v-9.1h-2.7l-0.1,1.6c0,0.7-0.3,2.4-0.3,3.1c-0.1,0.7-0.2,1.4-0.3,2
			c-0.2,0.9-0.3,1.5-0.9,2c-0.5,0.5-1.3,0.5-1.5,0.6l-0.7,0.1l-0.3-1l0.4-0.1c0.2-0.1,0.4-0.2,0.6-0.3c0.6-0.4,0.8-0.8,1.1-3
			c0.4-2.8,0.3-3,0.4-3.7l0.2-2.5H164.8z"/>
		<path class="st0" d="M175.4,41.6c0.8,1,1.2,2.5,1.2,4c0,1.7-0.4,3.1-1.2,4c-0.8,1-2.1,1.5-3.3,1.5c-1.2,0-2.5-0.5-3.3-1.5
			c-0.8-0.9-1.2-2.3-1.2-4c0-1.4,0.4-3,1.2-4c0.8-0.9,2.1-1.5,3.3-1.5C173.3,40.1,174.6,40.7,175.4,41.6z M169.9,42.8
			c-0.2,0.3-0.5,1-0.5,2.8c0,1.8,0.3,2.5,0.5,2.8c0.3,0.5,0.9,1.3,2.2,1.3s1.9-0.8,2.2-1.3c0.2-0.3,0.5-1,0.5-2.8
			c0-1.8-0.3-2.5-0.5-2.8c-0.3-0.5-0.9-1.3-2.2-1.3S170.2,42.3,169.9,42.8z"/>
		<path class="st0" d="M181.1,50.8h-1.6V40.4h5.9l-0.2,1.5h-4V50.8z"/>
		<path class="st0" d="M187.3,40.5l1.6-0.3v6.4l-0.1,2.3h0.1c0.3-0.8,0.7-1.5,1.1-2.1l3.8-6.3l1.7-0.2v10.6h-1.6v-6.2l0.1-2.2h-0.1
			c-0.3,0.8-0.6,1.4-1.1,2.1l-3.8,6.3h-1.7V40.5z"/>
		<path class="st0" d="M200,44.1c0,0.3,0,0.8,0.5,1.2c0.4,0.3,1,0.4,1.5,0.4c0.7,0,1.5-0.1,2.1-0.4v-4.8l1.6-0.3v10.6h-1.6v-4.3
			c-1,0.4-1.5,0.4-2.4,0.4c-0.8,0-2-0.1-2.7-1c-0.6-0.7-0.6-1.4-0.6-2.1v-3.4l1.6-0.3V44.1z"/>
		<path class="st0" d="M210.5,45.9v0.2c0,0.6,0,1.5,0.5,2.3c0.5,0.8,1.4,1.3,2.6,1.3c0.6,0,1.6-0.1,2.5-1l0.6,1
			c-1,0.9-2.2,1.3-3.5,1.3c-1.8,0-2.8-0.8-3.4-1.5c-1-1.2-1.2-2.6-1.2-4.1c0-1.1,0.2-2.5,1.1-3.7c0.6-0.9,1.7-1.7,3.3-1.7
			c1.3,0,2.3,0.5,2.8,1.1c0.6,0.6,0.8,1.4,0.9,1.6c0.2,0.6,0.3,1.4,0.3,2.8v0.2H210.5z M215.3,44.6c0-0.6-0.1-1.7-0.5-2.3
			c-0.3-0.5-1-0.9-1.9-0.9c-0.9,0-1.5,0.4-1.9,1c-0.4,0.6-0.6,1.5-0.5,2.2H215.3z"/>
		<path class="st0" d="M226.8,49.6c-0.4,0.4-0.9,0.8-1.4,1.1c-0.5,0.2-1,0.3-1.8,0.3c-1.7,0-2.6-0.7-3.3-1.6c-0.6-0.9-1-2-1-3.7
			c0-2.3,0.7-3.7,1.6-4.5c0.9-0.9,1.9-1.1,2.8-1.1c0.7,0,1.8,0.1,2.8,1.1l-0.9,1.1c-0.8-0.8-1.6-0.8-1.9-0.8c-0.4,0-1.2,0.1-1.8,0.9
			c-0.5,0.7-0.8,1.9-0.8,3.5c0,0.9,0.1,2,0.6,2.8c0.5,0.8,1.3,1,1.9,1c0.6,0,1.1-0.2,1.5-0.5c0.3-0.2,0.5-0.4,0.7-0.7L226.8,49.6z"
			/>
		<path class="st0" d="M229.3,40.5l1.6-0.3v4.6h1.8c0.4,0,0.7,0,0.9-0.3c0.1-0.1,0.3-0.3,0.5-1l0.3-1.6c0.1-0.4,0.2-0.8,0.5-1.1
			c0.2-0.2,0.5-0.4,1.3-0.5l0.9-0.1l0.3,1l-0.6,0.1c-0.1,0-0.3,0.1-0.5,0.2c-0.2,0.2-0.3,0.5-0.3,0.6l-0.4,1.6
			c-0.1,0.3-0.2,0.7-0.5,1c-0.2,0.2-0.5,0.4-0.8,0.5v0.1c0.3,0.1,0.5,0.3,0.7,0.4c0.3,0.4,0.5,0.7,0.6,1.1l0.5,2
			c0.1,0.2,0.2,0.5,0.4,0.7c0.1,0.1,0.2,0.1,0.6,0.2l0.4,0.1l-0.3,1l-1.1-0.1c-0.4,0-1-0.1-1.3-0.6c-0.3-0.3-0.4-0.8-0.5-1.3
			l-0.3-1.6c-0.1-0.4-0.1-0.7-0.5-1c-0.4-0.3-0.7-0.3-1-0.3h-1.6v4.8h-1.6V40.5z"/>
		<path class="st0" d="M239.5,40.5l1.6-0.3v6.4l-0.1,2.3h0.1c0.3-0.8,0.7-1.5,1.1-2.1l3.8-6.3l1.7-0.2v10.6H246v-6.2l0.1-2.2H246
			c-0.3,0.8-0.6,1.4-1.1,2.1l-3.8,6.3h-1.7V40.5z"/>
		<path class="st0" d="M252.5,45.9v0.2c0,0.6,0,1.5,0.5,2.3c0.5,0.8,1.4,1.3,2.6,1.3c0.6,0,1.6-0.1,2.5-1l0.6,1
			c-1,0.9-2.2,1.3-3.5,1.3c-1.8,0-2.8-0.8-3.4-1.5c-1-1.2-1.2-2.6-1.2-4.1c0-1.1,0.2-2.5,1.1-3.7c0.6-0.9,1.7-1.7,3.3-1.7
			c1.3,0,2.3,0.5,2.8,1.1c0.6,0.6,0.8,1.4,0.9,1.6c0.2,0.6,0.3,1.4,0.3,2.8v0.2H252.5z M257.2,44.6c0-0.6-0.1-1.7-0.5-2.3
			c-0.3-0.5-1-0.9-1.9-0.9c-0.9,0-1.5,0.4-1.9,1c-0.4,0.6-0.6,1.5-0.5,2.2H257.2z"/>
	</g>
	<g>
		<path class="st0" d="M111.5,66.6c-0.3,4.4-0.5,7.5-1.7,8.7c-0.6,0.7-1.4,0.8-2.1,0.9l-0.7,0.1l-0.3-1.2l0.4-0.1
			c0.2-0.1,0.6-0.2,0.8-0.3c1.3-0.6,1.8-2.6,2.1-9.4l0.2-3.4h6.8v14.3h-1.7v-13h-3.7L111.5,66.6z"/>
		<path class="st0" d="M120.7,65.9l1.6-0.3V72l-0.1,2.3h0.1c0.3-0.8,0.7-1.5,1.1-2.1l3.8-6.3l1.7-0.2v10.6h-1.6V70l0.1-2.2h-0.1
			c-0.3,0.8-0.6,1.4-1.1,2.1l-3.8,6.3h-1.7V65.9z"/>
		<path class="st0" d="M133.8,76.2h-1.6V65.9l1.6-0.3V70h4.5v-4.1l1.6-0.3v10.6h-1.6v-4.9h-4.5V76.2z"/>
		<path class="st0" d="M143.2,65.9l1.6-0.3V72l-0.1,2.3h0.1c0.3-0.8,0.7-1.5,1.1-2.1l3.8-6.3l1.7-0.2v10.6h-1.6V70l0.1-2.2h-0.1
			c-0.3,0.8-0.6,1.4-1.1,2.1l-3.8,6.3h-1.7V65.9z"/>
		<path class="st0" d="M154.7,65.9l1.6-0.3V72l-0.1,2.3h0.1c0.3-0.8,0.7-1.5,1.1-2.1l3.8-6.3l1.7-0.2v10.6h-1.6V70l0.1-2.2h-0.1
			c-0.3,0.8-0.6,1.4-1.1,2.1l-3.8,6.3h-1.7V65.9z"/>
	</g>
</g>
</svg>
